# xmcd
#
# Track frame offsets:
#	150
#	16142
#	31200
#	46990
#
# Disc length: 818 seconds
#
# Revision: 0
# Processed by: cddbd v1.5.2PL0 Copyright (c) Steve Scherf et al.
# Submitted via: audiograbber 1.83.01
#
DISCID=23033004
DTITLE=A. Aallon Rytmiorkesteri - Kaksi Tähteä [CDS-Promo)
DYEAR=1994
DGENRE=Pop
TTITLE0=Kaksi Tähteä
TTITLE1=Sirkusmies
TTITLE2=Kuka Murtaa Tämän Taian
TTITLE3=Yksinäisyys
EXTD=TR.
EXTT0=
EXTT1=
EXTT2=
EXTT3=
PLAYORDER=
